<svg xmlns="http://www.w3.org/2000/svg" xmlns:xlink="http://www.w3.org/1999/xlink" width="217" zoomAndPan="magnify" viewBox="0 0 162.75 34.499999" height="46" preserveAspectRatio="xMidYMid meet" version="1.0"><defs><g/><clipPath id="631ede5d17"><path d="M 10.871094 5.617188 L 38.222656 5.617188 L 38.222656 32.972656 L 10.871094 32.972656 Z M 10.871094 5.617188 " clip-rule="nonzero"/></clipPath></defs><g fill="#ffffff" fill-opacity="1"><g transform="translate(34.693337, 23.546842)"><g><path d="M 0.84375 -1.03125 C 1.4375 -1.03125 1.863281 -1.125 2.125 -1.3125 C 2.394531 -1.5 2.53125 -1.8125 2.53125 -2.25 L 2.53125 -18.796875 C 2.53125 -19.234375 2.394531 -19.546875 2.125 -19.734375 C 1.863281 -19.921875 1.4375 -20.015625 0.84375 -20.015625 L 0.84375 -21.046875 L 6.375 -21.046875 L 10.5 -5.578125 L 14.421875 -21.046875 L 19.8125 -21.046875 L 19.8125 -20.015625 C 19.175781 -20.015625 18.734375 -19.921875 18.484375 -19.734375 C 18.242188 -19.554688 18.125 -19.242188 18.125 -18.796875 L 18.125 -2.25 C 18.125 -1.8125 18.253906 -1.5 18.515625 -1.3125 C 18.785156 -1.125 19.21875 -1.03125 19.8125 -1.03125 L 19.8125 0 L 13.359375 0 L 13.359375 -1.03125 C 13.953125 -1.03125 14.378906 -1.125 14.640625 -1.3125 C 14.910156 -1.5 15.046875 -1.8125 15.046875 -2.25 L 15.046875 -18.359375 L 10.328125 0 L 9.03125 0 L 3.84375 -17.984375 L 3.84375 -2.25 C 3.84375 -1.8125 3.972656 -1.5 4.234375 -1.3125 C 4.492188 -1.125 4.925781 -1.03125 5.53125 -1.03125 L 5.53125 0 L 0.84375 0 Z M 0.84375 -1.03125 "/></g></g></g><g fill="#ffffff" fill-opacity="1"><g transform="translate(58.177308, 23.546842)"><g><path d="M 0.671875 -1.03125 C 1.273438 -1.03125 1.707031 -1.125 1.96875 -1.3125 C 2.226562 -1.5 2.359375 -1.8125 2.359375 -2.25 L 2.359375 -12.90625 C 2.359375 -13.332031 2.226562 -13.640625 1.96875 -13.828125 C 1.707031 -14.015625 1.273438 -14.109375 0.671875 -14.109375 L 0.671875 -15.15625 L 8.984375 -15.15625 C 9.460938 -15.15625 9.804688 -15.195312 10.015625 -15.28125 C 10.222656 -15.363281 10.335938 -15.5 10.359375 -15.6875 L 11.28125 -15.6875 L 12.4375 -11.140625 L 11.5 -10.890625 C 11.164062 -11.785156 10.84375 -12.460938 10.53125 -12.921875 C 10.226562 -13.378906 9.835938 -13.679688 9.359375 -13.828125 C 8.878906 -13.984375 8.226562 -14.0625 7.40625 -14.0625 L 5.421875 -14.0625 L 5.421875 -8.03125 L 7.4375 -8.03125 C 8.164062 -8.03125 8.53125 -8.515625 8.53125 -9.484375 L 9.421875 -9.484375 L 9.421875 -5.21875 L 8.53125 -5.21875 C 8.53125 -6.363281 8.164062 -6.9375 7.4375 -6.9375 L 5.421875 -6.9375 L 5.421875 -1.09375 L 8.328125 -1.09375 C 9.171875 -1.09375 9.820312 -1.1875 10.28125 -1.375 C 10.738281 -1.5625 11.078125 -1.921875 11.296875 -2.453125 C 11.515625 -2.984375 11.675781 -3.765625 11.78125 -4.796875 L 12.71875 -4.796875 L 12.71875 0.59375 L 11.765625 0.59375 C 11.679688 0.363281 11.5 0.207031 11.21875 0.125 C 10.9375 0.0390625 10.472656 0 9.828125 0 L 0.671875 0 Z M 0.671875 -1.03125 "/></g></g></g><g fill="#ffffff" fill-opacity="1"><g transform="translate(74.170216, 23.546842)"><g><path d="M 0.671875 -1.03125 C 1.273438 -1.03125 1.707031 -1.125 1.96875 -1.3125 C 2.226562 -1.5 2.359375 -1.8125 2.359375 -2.25 L 2.359375 -12.90625 C 2.359375 -13.332031 2.226562 -13.640625 1.96875 -13.828125 C 1.707031 -14.015625 1.273438 -14.109375 0.671875 -14.109375 L 0.671875 -15.15625 L 7.359375 -15.15625 C 9.128906 -15.15625 10.4375 -14.664062 11.28125 -13.6875 C 12.125 -12.71875 12.546875 -11.203125 12.546875 -9.140625 L 12.546875 -6 C 12.546875 -2 10.816406 0 7.359375 0 L 0.671875 0 Z M 7.359375 -14.0625 L 5.5 -14.0625 L 5.5 -1.09375 L 7.359375 -1.09375 C 7.992188 -1.09375 8.5 -1.335938 8.875 -1.828125 C 9.257812 -2.328125 9.453125 -2.988281 9.453125 -3.8125 L 9.453125 -11.34375 C 9.453125 -12.164062 9.257812 -12.820312 8.875 -13.3125 C 8.5 -13.8125 7.992188 -14.0625 7.359375 -14.0625 Z M 7.359375 -14.0625 "/></g></g></g><g fill="#ffffff" fill-opacity="1"><g transform="translate(90.443695, 23.546842)"><g><path d="M 0.671875 -1.03125 C 1.273438 -1.03125 1.707031 -1.125 1.96875 -1.3125 C 2.226562 -1.5 2.359375 -1.8125 2.359375 -2.25 L 2.359375 -12.90625 C 2.359375 -13.332031 2.226562 -13.640625 1.96875 -13.828125 C 1.707031 -14.015625 1.273438 -14.109375 0.671875 -14.109375 L 0.671875 -15.15625 L 7.125 -15.15625 L 7.125 -14.109375 C 6.53125 -14.109375 6.097656 -14.015625 5.828125 -13.828125 C 5.566406 -13.640625 5.4375 -13.332031 5.4375 -12.90625 L 5.4375 -2.25 C 5.4375 -1.8125 5.566406 -1.5 5.828125 -1.3125 C 6.097656 -1.125 6.53125 -1.03125 7.125 -1.03125 L 7.125 0 L 0.671875 0 Z M 0.671875 -1.03125 "/></g></g></g><g fill="#ffffff" fill-opacity="1"><g transform="translate(101.077824, 23.546842)"><g><path d="M 6.765625 -21.328125 C 7.472656 -21.328125 7.976562 -21.382812 8.28125 -21.5 C 8.582031 -21.613281 8.804688 -21.816406 8.953125 -22.109375 L 9.90625 -22.109375 L 11.140625 -17.03125 L 10.1875 -16.78125 C 9.832031 -17.71875 9.503906 -18.425781 9.203125 -18.90625 C 8.898438 -19.394531 8.582031 -19.734375 8.25 -19.921875 C 7.925781 -20.109375 7.515625 -20.203125 7.015625 -20.203125 C 6.265625 -20.203125 5.628906 -19.914062 5.109375 -19.34375 C 4.597656 -18.78125 4.34375 -18.078125 4.34375 -17.234375 L 4.34375 -3.8125 C 4.34375 -3.007812 4.582031 -2.34375 5.0625 -1.8125 C 5.539062 -1.289062 6.144531 -1.03125 6.875 -1.03125 C 7.75 -1.03125 8.457031 -1.421875 9 -2.203125 C 9.550781 -2.984375 9.828125 -4.015625 9.828125 -5.296875 L 9.828125 -5.75 L 11.03125 -5.75 L 11.03125 -5.71875 C 11.03125 -3.6875 10.648438 -2.175781 9.890625 -1.1875 C 9.128906 -0.207031 7.960938 0.28125 6.390625 0.28125 C 4.765625 0.28125 3.492188 -0.25 2.578125 -1.3125 C 1.660156 -2.382812 1.203125 -3.851562 1.203125 -5.71875 L 1.203125 -15.328125 C 1.203125 -17.285156 1.675781 -18.773438 2.625 -19.796875 C 3.570312 -20.816406 4.953125 -21.328125 6.765625 -21.328125 Z M 6.765625 -21.328125 "/></g></g></g><g fill="#ffffff" fill-opacity="1"><g transform="translate(115.864311, 23.546842)"><g><path d="M 0.671875 -1.03125 C 1.273438 -1.03125 1.707031 -1.125 1.96875 -1.3125 C 2.226562 -1.5 2.359375 -1.8125 2.359375 -2.25 L 2.359375 -12.90625 C 2.359375 -13.332031 2.226562 -13.640625 1.96875 -13.828125 C 1.707031 -14.015625 1.273438 -14.109375 0.671875 -14.109375 L 0.671875 -15.15625 L 8.984375 -15.15625 C 9.460938 -15.15625 9.804688 -15.195312 10.015625 -15.28125 C 10.222656 -15.363281 10.335938 -15.5 10.359375 -15.6875 L 11.28125 -15.6875 L 12.4375 -11.140625 L 11.5 -10.890625 C 11.164062 -11.785156 10.84375 -12.460938 10.53125 -12.921875 C 10.226562 -13.378906 9.835938 -13.679688 9.359375 -13.828125 C 8.878906 -13.984375 8.226562 -14.0625 7.40625 -14.0625 L 5.421875 -14.0625 L 5.421875 -8.03125 L 7.4375 -8.03125 C 8.164062 -8.03125 8.53125 -8.515625 8.53125 -9.484375 L 9.421875 -9.484375 L 9.421875 -5.21875 L 8.53125 -5.21875 C 8.53125 -6.363281 8.164062 -6.9375 7.4375 -6.9375 L 5.421875 -6.9375 L 5.421875 -1.09375 L 8.328125 -1.09375 C 9.171875 -1.09375 9.820312 -1.1875 10.28125 -1.375 C 10.738281 -1.5625 11.078125 -1.921875 11.296875 -2.453125 C 11.515625 -2.984375 11.675781 -3.765625 11.78125 -4.796875 L 12.71875 -4.796875 L 12.71875 0.59375 L 11.765625 0.59375 C 11.679688 0.363281 11.5 0.207031 11.21875 0.125 C 10.9375 0.0390625 10.472656 0 9.828125 0 L 0.671875 0 Z M 0.671875 -1.03125 "/></g></g></g><g fill="#ffffff" fill-opacity="1"><g transform="translate(131.857216, 23.546842)"><g><path d="M 3.390625 -1.03125 C 3.992188 -1.03125 4.425781 -1.125 4.6875 -1.3125 C 4.945312 -1.5 5.078125 -1.8125 5.078125 -2.25 L 5.078125 -5.28125 L 1.578125 -13 C 1.347656 -13.476562 1.125 -13.796875 0.90625 -13.953125 C 0.695312 -14.117188 0.359375 -14.203125 -0.109375 -14.203125 L -0.109375 -15.15625 L 6.34375 -15.15625 L 6.34375 -14.203125 C 5.757812 -14.203125 5.300781 -14.082031 4.96875 -13.84375 C 4.632812 -13.613281 4.53125 -13.335938 4.65625 -13.015625 L 7.328125 -7.015625 L 9.765625 -12.96875 C 9.910156 -13.351562 9.835938 -13.65625 9.546875 -13.875 C 9.265625 -14.09375 8.773438 -14.203125 8.078125 -14.203125 L 8.078125 -15.15625 L 12.859375 -15.15625 L 12.859375 -14.203125 C 12.390625 -14.203125 12.03125 -14.113281 11.78125 -13.9375 C 11.539062 -13.769531 11.316406 -13.445312 11.109375 -12.96875 L 8.171875 -5.71875 L 8.171875 -2.25 C 8.171875 -1.8125 8.300781 -1.5 8.5625 -1.3125 C 8.820312 -1.125 9.25 -1.03125 9.84375 -1.03125 L 9.84375 0 L 3.390625 0 Z M 3.390625 -1.03125 "/></g></g></g><g clip-path="url(#631ede5d17)"><path fill="#fffefe" d="M 25.320312 32.820312 L 23.621094 32.820312 C 23.34375 32.820312 23.066406 32.792969 22.792969 32.738281 C 22.519531 32.683594 22.253906 32.605469 21.996094 32.496094 C 21.738281 32.390625 21.492188 32.257812 21.261719 32.105469 C 21.027344 31.949219 20.8125 31.773438 20.617188 31.574219 C 20.417969 31.378906 20.242188 31.164062 20.089844 30.933594 C 19.933594 30.699219 19.800781 30.453125 19.695312 30.195312 C 19.589844 29.941406 19.507812 29.675781 19.453125 29.398438 C 19.398438 29.125 19.371094 28.851562 19.371094 28.570312 L 19.371094 24.320312 L 15.121094 24.320312 C 14.839844 24.320312 14.566406 24.292969 14.292969 24.238281 C 14.015625 24.183594 13.75 24.101562 13.496094 23.996094 C 13.238281 23.890625 12.992188 23.757812 12.757812 23.601562 C 12.527344 23.449219 12.3125 23.273438 12.117188 23.074219 C 11.917969 22.878906 11.742188 22.664062 11.585938 22.429688 C 11.433594 22.199219 11.300781 21.953125 11.195312 21.695312 C 11.085938 21.4375 11.007812 21.171875 10.953125 20.898438 C 10.898438 20.625 10.871094 20.347656 10.871094 20.070312 L 10.871094 18.371094 C 10.871094 18.089844 10.898438 17.816406 10.953125 17.542969 C 11.007812 17.269531 11.085938 17.003906 11.195312 16.746094 C 11.300781 16.488281 11.433594 16.242188 11.585938 16.011719 C 11.742188 15.777344 11.917969 15.5625 12.117188 15.367188 C 12.3125 15.167969 12.527344 14.992188 12.757812 14.835938 C 12.992188 14.683594 13.238281 14.550781 13.496094 14.445312 C 13.75 14.335938 14.015625 14.257812 14.292969 14.203125 C 14.566406 14.148438 14.839844 14.121094 15.121094 14.121094 L 19.371094 14.121094 L 19.371094 9.867188 C 19.371094 9.589844 19.398438 9.3125 19.453125 9.039062 C 19.507812 8.765625 19.589844 8.5 19.695312 8.242188 C 19.800781 7.984375 19.933594 7.742188 20.089844 7.507812 C 20.242188 7.277344 20.417969 7.0625 20.617188 6.863281 C 20.8125 6.667969 21.027344 6.492188 21.261719 6.335938 C 21.492188 6.179688 21.738281 6.050781 21.996094 5.945312 C 22.253906 5.835938 22.519531 5.753906 22.792969 5.699219 C 23.066406 5.644531 23.34375 5.617188 23.621094 5.617188 L 25.320312 5.617188 C 26.082031 5.617188 26.789062 5.808594 27.445312 6.1875 C 27.640625 6.308594 27.761719 6.480469 27.816406 6.703125 C 27.871094 6.925781 27.839844 7.132812 27.726562 7.332031 C 27.613281 7.527344 27.445312 7.660156 27.226562 7.722656 C 27.007812 7.785156 26.796875 7.765625 26.597656 7.660156 C 26.203125 7.433594 25.777344 7.320312 25.320312 7.320312 L 23.621094 7.320312 C 23.28125 7.320312 22.957031 7.382812 22.644531 7.511719 C 22.332031 7.640625 22.058594 7.828125 21.816406 8.066406 C 21.578125 8.304688 21.394531 8.582031 21.265625 8.894531 C 21.136719 9.207031 21.070312 9.53125 21.070312 9.867188 L 21.070312 14.96875 C 21.070312 15.203125 20.988281 15.40625 20.820312 15.570312 C 20.65625 15.738281 20.457031 15.820312 20.21875 15.820312 L 15.121094 15.820312 C 14.78125 15.820312 14.457031 15.882812 14.144531 16.015625 C 13.832031 16.144531 13.554688 16.328125 13.316406 16.566406 C 13.078125 16.804688 12.894531 17.082031 12.765625 17.394531 C 12.632812 17.707031 12.570312 18.03125 12.570312 18.371094 L 12.570312 20.070312 C 12.570312 20.410156 12.632812 20.734375 12.765625 21.046875 C 12.894531 21.359375 13.078125 21.632812 13.316406 21.875 C 13.554688 22.113281 13.832031 22.296875 14.144531 22.425781 C 14.457031 22.554688 14.78125 22.621094 15.121094 22.621094 L 20.21875 22.621094 C 20.457031 22.621094 20.65625 22.703125 20.820312 22.871094 C 20.988281 23.035156 21.070312 23.234375 21.070312 23.472656 L 21.070312 28.570312 C 21.070312 28.910156 21.136719 29.234375 21.265625 29.546875 C 21.394531 29.859375 21.578125 30.136719 21.816406 30.375 C 22.058594 30.613281 22.332031 30.796875 22.644531 30.925781 C 22.957031 31.058594 23.28125 31.121094 23.621094 31.121094 L 25.320312 31.121094 C 25.660156 31.121094 25.984375 31.058594 26.296875 30.925781 C 26.609375 30.796875 26.886719 30.613281 27.125 30.375 C 27.363281 30.136719 27.546875 29.859375 27.675781 29.546875 C 27.808594 29.234375 27.871094 28.910156 27.871094 28.570312 L 27.871094 23.472656 C 27.871094 23.234375 27.953125 23.035156 28.121094 22.871094 C 28.285156 22.703125 28.488281 22.621094 28.722656 22.621094 L 33.824219 22.621094 C 34.160156 22.621094 34.484375 22.554688 34.796875 22.425781 C 35.109375 22.296875 35.386719 22.113281 35.625 21.875 C 35.863281 21.632812 36.050781 21.359375 36.179688 21.046875 C 36.308594 20.734375 36.371094 20.410156 36.371094 20.070312 L 36.371094 18.371094 C 36.371094 17.914062 36.257812 17.488281 36.03125 17.09375 C 35.925781 16.894531 35.90625 16.683594 35.96875 16.464844 C 36.03125 16.246094 36.164062 16.078125 36.359375 15.964844 C 36.558594 15.851562 36.765625 15.820312 36.988281 15.875 C 37.210938 15.929688 37.382812 16.050781 37.503906 16.246094 C 37.882812 16.902344 38.074219 17.609375 38.074219 18.371094 L 38.074219 20.070312 C 38.074219 20.347656 38.046875 20.625 37.992188 20.898438 C 37.9375 21.171875 37.855469 21.4375 37.746094 21.695312 C 37.640625 21.953125 37.511719 22.199219 37.355469 22.429688 C 37.199219 22.664062 37.023438 22.878906 36.828125 23.074219 C 36.628906 23.273438 36.414062 23.449219 36.183594 23.601562 C 35.949219 23.757812 35.707031 23.890625 35.449219 23.996094 C 35.191406 24.101562 34.925781 24.183594 34.652344 24.238281 C 34.378906 24.292969 34.101562 24.320312 33.824219 24.320312 L 29.570312 24.320312 L 29.570312 28.570312 C 29.570312 28.851562 29.542969 29.125 29.488281 29.398438 C 29.433594 29.675781 29.355469 29.941406 29.246094 30.195312 C 29.140625 30.453125 29.007812 30.699219 28.855469 30.933594 C 28.699219 31.164062 28.523438 31.378906 28.324219 31.574219 C 28.128906 31.773438 27.914062 31.949219 27.679688 32.105469 C 27.449219 32.257812 27.203125 32.390625 26.945312 32.496094 C 26.6875 32.605469 26.421875 32.683594 26.148438 32.738281 C 25.875 32.792969 25.601562 32.820312 25.320312 32.820312 Z M 25.320312 32.820312 " fill-opacity="1" fill-rule="nonzero"/></g><path fill="#fffefe" d="M 29.570312 19.21875 C 29.398438 19.21875 29.242188 19.171875 29.101562 19.078125 C 28.539062 18.703125 23.621094 15.339844 23.621094 12.417969 C 23.621094 12.074219 23.671875 11.738281 23.777344 11.40625 C 23.878906 11.078125 24.027344 10.769531 24.226562 10.488281 C 24.421875 10.203125 24.65625 9.953125 24.929688 9.742188 C 25.199219 9.53125 25.496094 9.363281 25.820312 9.242188 C 26.144531 9.117188 26.476562 9.046875 26.820312 9.027344 C 27.167969 9.007812 27.507812 9.039062 27.839844 9.121094 C 28.175781 9.203125 28.492188 9.335938 28.785156 9.515625 C 29.082031 9.695312 29.34375 9.914062 29.570312 10.171875 C 29.800781 9.914062 30.0625 9.695312 30.355469 9.515625 C 30.652344 9.335938 30.96875 9.203125 31.300781 9.121094 C 31.636719 9.039062 31.976562 9.007812 32.320312 9.027344 C 32.667969 9.046875 33 9.117188 33.324219 9.242188 C 33.644531 9.363281 33.945312 9.53125 34.214844 9.742188 C 34.488281 9.953125 34.722656 10.203125 34.917969 10.488281 C 35.113281 10.769531 35.265625 11.078125 35.367188 11.40625 C 35.46875 11.738281 35.523438 12.074219 35.523438 12.417969 C 35.523438 15.339844 30.605469 18.703125 30.042969 19.078125 C 29.902344 19.171875 29.742188 19.21875 29.570312 19.21875 Z M 27.019531 10.71875 C 26.796875 10.71875 26.578125 10.761719 26.371094 10.847656 C 26.164062 10.933594 25.980469 11.058594 25.820312 11.21875 C 25.660156 11.375 25.535156 11.558594 25.449219 11.769531 C 25.363281 11.976562 25.320312 12.195312 25.320312 12.417969 C 25.320312 13.75 27.667969 15.972656 29.570312 17.335938 C 31.382812 16.039062 33.824219 13.816406 33.824219 12.417969 C 33.824219 12.195312 33.777344 11.976562 33.691406 11.769531 C 33.605469 11.558594 33.484375 11.375 33.324219 11.21875 C 33.164062 11.058594 32.980469 10.933594 32.773438 10.847656 C 32.566406 10.761719 32.347656 10.71875 32.121094 10.71875 C 31.898438 10.71875 31.679688 10.761719 31.472656 10.847656 C 31.261719 10.933594 31.078125 11.058594 30.917969 11.21875 C 30.761719 11.375 30.636719 11.558594 30.550781 11.769531 C 30.464844 11.976562 30.421875 12.195312 30.421875 12.417969 C 30.421875 12.652344 30.339844 12.855469 30.171875 13.019531 C 30.007812 13.1875 29.804688 13.269531 29.570312 13.269531 C 29.335938 13.269531 29.136719 13.1875 28.96875 13.019531 C 28.804688 12.855469 28.722656 12.652344 28.722656 12.417969 C 28.722656 12.195312 28.679688 11.976562 28.59375 11.769531 C 28.507812 11.558594 28.382812 11.375 28.222656 11.21875 C 28.0625 11.058594 27.878906 10.933594 27.671875 10.847656 C 27.464844 10.761719 27.246094 10.71875 27.019531 10.71875 Z M 27.019531 10.71875 " fill-opacity="1" fill-rule="nonzero"/><g fill="#ffffff" fill-opacity="1"><g transform="translate(58.921644, 31.715355)"><g><path d="M 0.265625 -0.421875 C 0.503906 -0.421875 0.675781 -0.457031 0.78125 -0.53125 C 0.894531 -0.601562 0.953125 -0.726562 0.953125 -0.90625 L 0.953125 -7.5625 C 0.953125 -7.738281 0.894531 -7.863281 0.78125 -7.9375 C 0.675781 -8.019531 0.503906 -8.0625 0.265625 -8.0625 L 0.265625 -8.46875 L 2.953125 -8.46875 C 4.347656 -8.46875 5.046875 -7.664062 5.046875 -6.0625 L 5.046875 -2.421875 C 5.046875 -0.804688 4.347656 0 2.953125 0 L 0.265625 0 Z M 2.953125 -8.015625 L 2.21875 -8.015625 L 2.21875 -0.453125 L 2.953125 -0.453125 C 3.210938 -0.453125 3.421875 -0.550781 3.578125 -0.75 C 3.734375 -0.945312 3.8125 -1.207031 3.8125 -1.53125 L 3.8125 -6.9375 C 3.8125 -7.269531 3.734375 -7.53125 3.578125 -7.71875 C 3.421875 -7.914062 3.210938 -8.015625 2.953125 -8.015625 Z M 2.953125 -8.015625 "/></g></g></g><g fill="#ffffff" fill-opacity="1"><g transform="translate(69.330638, 31.715355)"><g><path d="M 1.125 -0.921875 C 1.070312 -0.765625 1.101562 -0.640625 1.21875 -0.546875 C 1.34375 -0.460938 1.535156 -0.421875 1.796875 -0.421875 L 1.796875 0 L -0.09375 0 L -0.09375 -0.421875 C 0.113281 -0.421875 0.269531 -0.457031 0.375 -0.53125 C 0.476562 -0.601562 0.554688 -0.734375 0.609375 -0.921875 L 2.296875 -6.140625 L 2.84375 -6.140625 L 4.609375 -0.890625 C 4.671875 -0.691406 4.742188 -0.5625 4.828125 -0.5 C 4.910156 -0.445312 5.070312 -0.421875 5.3125 -0.421875 L 5.3125 0 L 2.71875 0 L 2.71875 -0.421875 C 3.269531 -0.421875 3.5 -0.570312 3.40625 -0.875 L 3.15625 -1.640625 L 1.359375 -1.640625 Z M 1.5 -2.0625 L 3.03125 -2.0625 L 2.28125 -4.4375 Z M 1.5 -2.0625 "/></g></g></g><g fill="#ffffff" fill-opacity="1"><g transform="translate(79.378122, 31.715355)"><g><path d="M 2.3125 -6.21875 C 2.539062 -6.21875 2.71875 -6.203125 2.84375 -6.171875 C 2.96875 -6.148438 3.0625 -6.140625 3.125 -6.140625 C 3.1875 -6.148438 3.238281 -6.203125 3.28125 -6.296875 L 3.65625 -6.296875 L 4.125 -4.484375 L 3.734375 -4.390625 C 3.546875 -4.898438 3.351562 -5.253906 3.15625 -5.453125 C 2.96875 -5.648438 2.722656 -5.75 2.421875 -5.75 C 2.179688 -5.75 1.976562 -5.664062 1.8125 -5.5 C 1.644531 -5.34375 1.5625 -5.148438 1.5625 -4.921875 C 1.5625 -4.703125 1.613281 -4.523438 1.71875 -4.390625 C 1.820312 -4.253906 2.007812 -4.109375 2.28125 -3.953125 L 3.5 -3.28125 C 3.820312 -3.113281 4.070312 -2.878906 4.25 -2.578125 C 4.425781 -2.285156 4.515625 -1.945312 4.515625 -1.5625 C 4.515625 -1.257812 4.425781 -0.976562 4.25 -0.71875 C 4.070312 -0.46875 3.832031 -0.265625 3.53125 -0.109375 C 3.238281 0.0351562 2.910156 0.109375 2.546875 0.109375 C 2.265625 0.109375 2.035156 0.0820312 1.859375 0.03125 C 1.691406 -0.0195312 1.554688 -0.0703125 1.453125 -0.125 C 1.347656 -0.175781 1.257812 -0.203125 1.1875 -0.203125 C 1.007812 -0.203125 0.894531 -0.132812 0.84375 0 L 0.453125 0 L 0.453125 -2.234375 L 0.84375 -2.234375 C 0.945312 -1.640625 1.128906 -1.179688 1.390625 -0.859375 C 1.660156 -0.535156 1.988281 -0.375 2.375 -0.375 C 2.539062 -0.375 2.703125 -0.421875 2.859375 -0.515625 C 3.015625 -0.617188 3.140625 -0.742188 3.234375 -0.890625 C 3.335938 -1.046875 3.390625 -1.203125 3.390625 -1.359375 C 3.390625 -1.765625 3.125 -2.113281 2.59375 -2.40625 L 1.609375 -2.953125 C 0.859375 -3.359375 0.484375 -3.890625 0.484375 -4.546875 C 0.484375 -4.835938 0.566406 -5.109375 0.734375 -5.359375 C 0.910156 -5.617188 1.140625 -5.828125 1.421875 -5.984375 C 1.703125 -6.140625 2 -6.21875 2.3125 -6.21875 Z M 2.3125 -6.21875 "/></g></g></g><g fill="#ffffff" fill-opacity="1"><g transform="translate(89.086692, 31.715355)"><g><path d="M 0.265625 -0.421875 C 0.503906 -0.421875 0.675781 -0.457031 0.78125 -0.53125 C 0.894531 -0.601562 0.953125 -0.726562 0.953125 -0.90625 L 0.953125 -5.203125 C 0.953125 -5.367188 0.894531 -5.488281 0.78125 -5.5625 C 0.675781 -5.644531 0.503906 -5.6875 0.265625 -5.6875 L 0.265625 -6.09375 L 2.875 -6.09375 L 2.875 -5.6875 C 2.632812 -5.6875 2.457031 -5.644531 2.34375 -5.5625 C 2.238281 -5.488281 2.1875 -5.367188 2.1875 -5.203125 L 2.1875 -3.328125 L 3.984375 -3.328125 L 3.984375 -5.203125 C 3.984375 -5.378906 3.929688 -5.503906 3.828125 -5.578125 C 3.734375 -5.648438 3.5625 -5.6875 3.3125 -5.6875 L 3.3125 -6.09375 L 5.8125 -6.09375 L 5.8125 -5.6875 C 5.5625 -5.6875 5.382812 -5.648438 5.28125 -5.578125 C 5.1875 -5.503906 5.140625 -5.378906 5.140625 -5.203125 L 5.140625 -0.90625 C 5.140625 -0.71875 5.1875 -0.585938 5.28125 -0.515625 C 5.382812 -0.453125 5.5625 -0.421875 5.8125 -0.421875 L 5.8125 0 L 3.3125 0 L 3.3125 -0.421875 C 3.5625 -0.421875 3.734375 -0.453125 3.828125 -0.515625 C 3.929688 -0.585938 3.984375 -0.71875 3.984375 -0.90625 L 3.984375 -2.890625 L 2.1875 -2.890625 L 2.1875 -0.90625 C 2.1875 -0.726562 2.238281 -0.601562 2.34375 -0.53125 C 2.457031 -0.457031 2.632812 -0.421875 2.875 -0.421875 L 2.875 0 L 0.265625 0 Z M 0.265625 -0.421875 "/></g></g></g><g fill="#ffffff" fill-opacity="1"><g transform="translate(100.004058, 31.715355)"><g><path d="M 0.265625 -0.421875 C 0.503906 -0.421875 0.675781 -0.457031 0.78125 -0.53125 C 0.894531 -0.601562 0.953125 -0.726562 0.953125 -0.90625 L 0.953125 -5.203125 C 0.953125 -5.367188 0.894531 -5.488281 0.78125 -5.5625 C 0.675781 -5.644531 0.503906 -5.6875 0.265625 -5.6875 L 0.265625 -6.09375 L 2.765625 -6.09375 C 3.390625 -6.09375 3.878906 -5.957031 4.234375 -5.6875 C 4.597656 -5.425781 4.78125 -5.0625 4.78125 -4.59375 C 4.78125 -4.238281 4.726562 -3.957031 4.625 -3.75 C 4.519531 -3.550781 4.316406 -3.367188 4.015625 -3.203125 C 4.398438 -3.066406 4.675781 -2.875 4.84375 -2.625 C 5.019531 -2.375 5.109375 -2.050781 5.109375 -1.65625 C 5.109375 -1.09375 4.9375 -0.675781 4.59375 -0.40625 C 4.257812 -0.132812 3.742188 0 3.046875 0 L 0.265625 0 Z M 2.78125 -5.65625 L 2.171875 -5.65625 L 2.171875 -0.4375 L 3.046875 -0.4375 C 3.296875 -0.4375 3.492188 -0.515625 3.640625 -0.671875 C 3.796875 -0.835938 3.875 -1.050781 3.875 -1.3125 L 3.875 -2 C 3.875 -2.28125 3.800781 -2.5 3.65625 -2.65625 C 3.507812 -2.820312 3.304688 -2.90625 3.046875 -2.90625 L 2.625 -2.90625 L 2.625 -3.328125 L 2.78125 -3.328125 C 3.0625 -3.328125 3.269531 -3.40625 3.40625 -3.5625 C 3.539062 -3.726562 3.609375 -3.984375 3.609375 -4.328125 L 3.609375 -4.796875 C 3.609375 -5.066406 3.53125 -5.273438 3.375 -5.421875 C 3.226562 -5.578125 3.03125 -5.65625 2.78125 -5.65625 Z M 2.78125 -5.65625 "/></g></g></g><g fill="#ffffff" fill-opacity="1"><g transform="translate(110.164509, 31.715355)"><g><path d="M 2.640625 -6.265625 C 3.335938 -6.265625 3.875 -6.050781 4.25 -5.625 C 4.625 -5.207031 4.8125 -4.617188 4.8125 -3.859375 L 4.8125 -2.25 C 4.8125 -0.632812 4.085938 0.171875 2.640625 0.171875 C 1.929688 0.171875 1.390625 -0.0351562 1.015625 -0.453125 C 0.640625 -0.867188 0.453125 -1.46875 0.453125 -2.25 L 0.453125 -3.859375 C 0.453125 -4.648438 0.632812 -5.25 1 -5.65625 C 1.375 -6.0625 1.921875 -6.265625 2.640625 -6.265625 Z M 2.640625 -0.265625 C 2.910156 -0.265625 3.128906 -0.363281 3.296875 -0.5625 C 3.472656 -0.769531 3.5625 -1.03125 3.5625 -1.34375 L 3.5625 -4.75 C 3.5625 -5.0625 3.472656 -5.316406 3.296875 -5.515625 C 3.128906 -5.722656 2.910156 -5.828125 2.640625 -5.828125 C 2.378906 -5.828125 2.160156 -5.722656 1.984375 -5.515625 C 1.804688 -5.304688 1.71875 -5.050781 1.71875 -4.75 L 1.71875 -1.34375 C 1.71875 -1.019531 1.800781 -0.757812 1.96875 -0.5625 C 2.132812 -0.363281 2.359375 -0.265625 2.640625 -0.265625 Z M 2.640625 -0.265625 "/></g></g></g><g fill="#ffffff" fill-opacity="1"><g transform="translate(120.257175, 31.715355)"><g><path d="M 1.125 -0.921875 C 1.070312 -0.765625 1.101562 -0.640625 1.21875 -0.546875 C 1.34375 -0.460938 1.535156 -0.421875 1.796875 -0.421875 L 1.796875 0 L -0.09375 0 L -0.09375 -0.421875 C 0.113281 -0.421875 0.269531 -0.457031 0.375 -0.53125 C 0.476562 -0.601562 0.554688 -0.734375 0.609375 -0.921875 L 2.296875 -6.140625 L 2.84375 -6.140625 L 4.609375 -0.890625 C 4.671875 -0.691406 4.742188 -0.5625 4.828125 -0.5 C 4.910156 -0.445312 5.070312 -0.421875 5.3125 -0.421875 L 5.3125 0 L 2.71875 0 L 2.71875 -0.421875 C 3.269531 -0.421875 3.5 -0.570312 3.40625 -0.875 L 3.15625 -1.640625 L 1.359375 -1.640625 Z M 1.5 -2.0625 L 3.03125 -2.0625 L 2.28125 -4.4375 Z M 1.5 -2.0625 "/></g></g></g><g fill="#ffffff" fill-opacity="1"><g transform="translate(130.304663, 31.715355)"><g><path d="M 0.265625 -0.421875 C 0.503906 -0.421875 0.675781 -0.457031 0.78125 -0.53125 C 0.894531 -0.601562 0.953125 -0.726562 0.953125 -0.90625 L 0.953125 -5.203125 C 0.953125 -5.367188 0.894531 -5.488281 0.78125 -5.5625 C 0.675781 -5.644531 0.503906 -5.6875 0.265625 -5.6875 L 0.265625 -6.09375 L 2.9375 -6.09375 C 3.625 -6.09375 4.128906 -5.9375 4.453125 -5.625 C 4.785156 -5.3125 4.953125 -4.816406 4.953125 -4.140625 C 4.953125 -3.816406 4.867188 -3.535156 4.703125 -3.296875 C 4.535156 -3.066406 4.269531 -2.859375 3.90625 -2.671875 C 4.539062 -2.410156 4.859375 -1.941406 4.859375 -1.265625 C 4.859375 -1.035156 4.90625 -0.835938 5 -0.671875 C 5.09375 -0.503906 5.207031 -0.421875 5.34375 -0.421875 L 5.40625 -0.421875 L 5.40625 0 L 5.3125 0 C 4.757812 0 4.351562 -0.0976562 4.09375 -0.296875 C 3.832031 -0.503906 3.703125 -0.828125 3.703125 -1.265625 C 3.703125 -1.585938 3.617188 -1.867188 3.453125 -2.109375 C 3.285156 -2.347656 3.09375 -2.46875 2.875 -2.46875 L 2.640625 -2.46875 L 2.640625 -2.875 L 2.9375 -2.875 C 3.1875 -2.875 3.382812 -2.972656 3.53125 -3.171875 C 3.6875 -3.378906 3.765625 -3.648438 3.765625 -3.984375 L 3.765625 -4.5625 C 3.765625 -4.894531 3.6875 -5.160156 3.53125 -5.359375 C 3.382812 -5.554688 3.1875 -5.65625 2.9375 -5.65625 L 2.1875 -5.65625 L 2.1875 -0.90625 C 2.1875 -0.726562 2.238281 -0.601562 2.34375 -0.53125 C 2.457031 -0.457031 2.632812 -0.421875 2.875 -0.421875 L 2.875 0 L 0.265625 0 Z M 0.265625 -0.421875 "/></g></g></g><g fill="#ffffff" fill-opacity="1"><g transform="translate(140.600684, 31.715355)"><g><path d="M 0.265625 -0.421875 C 0.503906 -0.421875 0.675781 -0.457031 0.78125 -0.53125 C 0.894531 -0.601562 0.953125 -0.726562 0.953125 -0.90625 L 0.953125 -5.203125 C 0.953125 -5.367188 0.894531 -5.488281 0.78125 -5.5625 C 0.675781 -5.644531 0.503906 -5.6875 0.265625 -5.6875 L 0.265625 -6.09375 L 2.953125 -6.09375 C 3.671875 -6.09375 4.195312 -5.894531 4.53125 -5.5 C 4.875 -5.113281 5.046875 -4.507812 5.046875 -3.6875 L 5.046875 -2.421875 C 5.046875 -0.804688 4.347656 0 2.953125 0 L 0.265625 0 Z M 2.953125 -5.65625 L 2.21875 -5.65625 L 2.21875 -0.4375 L 2.953125 -0.4375 C 3.210938 -0.4375 3.421875 -0.535156 3.578125 -0.734375 C 3.734375 -0.941406 3.8125 -1.207031 3.8125 -1.53125 L 3.8125 -4.5625 C 3.8125 -4.894531 3.734375 -5.160156 3.578125 -5.359375 C 3.421875 -5.554688 3.210938 -5.65625 2.953125 -5.65625 Z M 2.953125 -5.65625 "/></g></g></g></svg>