<svg xmlns="http://www.w3.org/2000/svg" xmlns:xlink="http://www.w3.org/1999/xlink" width="100" zoomAndPan="magnify" viewBox="0 0 75 74.999997" height="100" preserveAspectRatio="xMidYMid meet" version="1.0"><defs><g/><clipPath id="6fbd2add96"><path d="M 1.613281 1.613281 L 73.613281 1.613281 L 73.613281 73.613281 L 1.613281 73.613281 Z M 1.613281 1.613281 " clip-rule="nonzero"/></clipPath></defs><g fill="#ffffff" fill-opacity="1"><g transform="translate(47.911452, 55.100014)"><g><path d="M 1.484375 -0.515625 L 1.625 -0.109375 C 1.570312 -0.0664062 1.5 -0.03125 1.40625 0 C 1.320312 0.03125 1.222656 0.046875 1.109375 0.046875 C 0.867188 0.046875 0.6875 -0.015625 0.5625 -0.140625 C 0.445312 -0.273438 0.390625 -0.460938 0.390625 -0.703125 L 0.390625 -1.734375 L 0.0625 -1.734375 L 0.0625 -2.15625 L 0.390625 -2.15625 L 0.390625 -2.578125 L 0.9375 -2.671875 L 0.9375 -2.15625 L 1.546875 -2.15625 L 1.546875 -1.734375 L 0.9375 -1.734375 L 0.9375 -0.75 C 0.9375 -0.632812 0.957031 -0.550781 1 -0.5 C 1.039062 -0.457031 1.101562 -0.4375 1.1875 -0.4375 C 1.289062 -0.4375 1.378906 -0.460938 1.453125 -0.515625 Z M 1.484375 -0.515625 "/></g></g></g><g clip-path="url(#6fbd2add96)"><path fill="#8f2323" d="M 39.738281 73.378906 L 35.253906 73.378906 C 34.515625 73.378906 33.789062 73.304688 33.066406 73.160156 C 32.34375 73.015625 31.644531 72.804688 30.964844 72.519531 C 30.285156 72.238281 29.636719 71.894531 29.027344 71.484375 C 28.414062 71.074219 27.847656 70.609375 27.328125 70.089844 C 26.808594 69.570312 26.34375 69.003906 25.933594 68.390625 C 25.523438 67.78125 25.179688 67.132812 24.894531 66.453125 C 24.613281 65.773438 24.402344 65.074219 24.257812 64.351562 C 24.113281 63.628906 24.039062 62.902344 24.039062 62.164062 L 24.039062 50.953125 L 12.824219 50.953125 C 12.089844 50.949219 11.359375 50.878906 10.640625 50.734375 C 9.917969 50.589844 9.214844 50.375 8.535156 50.09375 C 7.855469 49.8125 7.210938 49.464844 6.597656 49.058594 C 5.988281 48.648438 5.421875 48.183594 4.902344 47.664062 C 4.378906 47.144531 3.914062 46.578125 3.507812 45.964844 C 3.097656 45.351562 2.75 44.707031 2.46875 44.027344 C 2.1875 43.347656 1.972656 42.644531 1.832031 41.925781 C 1.6875 41.203125 1.613281 40.472656 1.613281 39.738281 L 1.613281 35.253906 C 1.613281 34.515625 1.6875 33.789062 1.832031 33.066406 C 1.972656 32.34375 2.1875 31.644531 2.46875 30.964844 C 2.75 30.285156 3.097656 29.636719 3.507812 29.027344 C 3.914062 28.414062 4.378906 27.847656 4.902344 27.328125 C 5.421875 26.808594 5.988281 26.34375 6.597656 25.933594 C 7.210938 25.523438 7.855469 25.179688 8.535156 24.894531 C 9.214844 24.613281 9.917969 24.402344 10.640625 24.257812 C 11.359375 24.113281 12.089844 24.039062 12.824219 24.039062 L 24.039062 24.039062 L 24.039062 12.824219 C 24.039062 12.089844 24.113281 11.359375 24.257812 10.640625 C 24.402344 9.917969 24.613281 9.214844 24.894531 8.535156 C 25.179688 7.855469 25.523438 7.210938 25.933594 6.597656 C 26.34375 5.988281 26.808594 5.421875 27.328125 4.902344 C 27.847656 4.378906 28.414062 3.914062 29.027344 3.507812 C 29.636719 3.097656 30.285156 2.75 30.964844 2.46875 C 31.644531 2.1875 32.34375 1.972656 33.066406 1.832031 C 33.789062 1.6875 34.515625 1.613281 35.253906 1.613281 L 39.738281 1.613281 C 41.742188 1.613281 43.609375 2.113281 45.34375 3.113281 C 45.589844 3.269531 45.796875 3.464844 45.964844 3.699219 C 46.132812 3.933594 46.25 4.191406 46.320312 4.472656 C 46.386719 4.753906 46.402344 5.039062 46.363281 5.324219 C 46.320312 5.609375 46.226562 5.878906 46.082031 6.128906 C 45.9375 6.378906 45.753906 6.59375 45.523438 6.773438 C 45.296875 6.953125 45.042969 7.082031 44.765625 7.160156 C 44.488281 7.242188 44.207031 7.269531 43.917969 7.238281 C 43.628906 7.210938 43.359375 7.128906 43.101562 6.996094 C 42.0625 6.394531 40.9375 6.097656 39.738281 6.097656 L 35.253906 6.097656 C 34.8125 6.097656 34.375 6.140625 33.941406 6.226562 C 33.507812 6.3125 33.085938 6.441406 32.679688 6.609375 C 32.269531 6.777344 31.882812 6.984375 31.515625 7.230469 C 31.148438 7.476562 30.808594 7.757812 30.496094 8.070312 C 30.183594 8.378906 29.902344 8.71875 29.660156 9.089844 C 29.414062 9.457031 29.207031 9.84375 29.035156 10.25 C 28.867188 10.660156 28.738281 11.078125 28.652344 11.511719 C 28.566406 11.945312 28.523438 12.382812 28.523438 12.824219 L 28.523438 26.28125 C 28.523438 26.578125 28.46875 26.867188 28.355469 27.140625 C 28.238281 27.414062 28.078125 27.65625 27.867188 27.867188 C 27.65625 28.078125 27.414062 28.238281 27.140625 28.355469 C 26.867188 28.46875 26.578125 28.523438 26.28125 28.523438 L 12.824219 28.523438 C 12.382812 28.523438 11.945312 28.566406 11.511719 28.652344 C 11.078125 28.738281 10.660156 28.867188 10.25 29.035156 C 9.84375 29.207031 9.457031 29.414062 9.089844 29.660156 C 8.71875 29.902344 8.378906 30.183594 8.070312 30.496094 C 7.757812 30.808594 7.476562 31.148438 7.230469 31.515625 C 6.984375 31.882812 6.777344 32.269531 6.609375 32.679688 C 6.441406 33.085938 6.3125 33.507812 6.226562 33.941406 C 6.140625 34.375 6.097656 34.8125 6.097656 35.253906 L 6.097656 39.738281 C 6.097656 40.179688 6.140625 40.617188 6.226562 41.050781 C 6.3125 41.484375 6.441406 41.90625 6.609375 42.3125 C 6.777344 42.722656 6.984375 43.109375 7.230469 43.476562 C 7.476562 43.84375 7.757812 44.183594 8.070312 44.496094 C 8.378906 44.808594 8.71875 45.085938 9.089844 45.332031 C 9.457031 45.578125 9.84375 45.785156 10.25 45.953125 C 10.660156 46.121094 11.078125 46.25 11.511719 46.335938 C 11.945312 46.421875 12.382812 46.464844 12.824219 46.464844 L 26.28125 46.464844 C 26.578125 46.464844 26.867188 46.523438 27.140625 46.636719 C 27.414062 46.75 27.65625 46.914062 27.867188 47.121094 C 28.078125 47.332031 28.238281 47.574219 28.355469 47.851562 C 28.46875 48.125 28.523438 48.410156 28.523438 48.707031 L 28.523438 62.164062 C 28.523438 62.605469 28.566406 63.042969 28.652344 63.476562 C 28.738281 63.910156 28.867188 64.332031 29.035156 64.738281 C 29.207031 65.148438 29.414062 65.535156 29.660156 65.902344 C 29.902344 66.269531 30.183594 66.609375 30.496094 66.921875 C 30.808594 67.234375 31.148438 67.511719 31.515625 67.757812 C 31.882812 68.003906 32.269531 68.210938 32.679688 68.378906 C 33.085938 68.550781 33.507812 68.675781 33.941406 68.761719 C 34.375 68.851562 34.8125 68.894531 35.253906 68.894531 L 39.738281 68.894531 C 40.179688 68.894531 40.617188 68.851562 41.050781 68.761719 C 41.484375 68.675781 41.90625 68.550781 42.3125 68.378906 C 42.722656 68.210938 43.109375 68.003906 43.476562 67.757812 C 43.84375 67.511719 44.183594 67.234375 44.496094 66.921875 C 44.808594 66.609375 45.085938 66.269531 45.332031 65.902344 C 45.578125 65.535156 45.785156 65.148438 45.953125 64.738281 C 46.121094 64.332031 46.25 63.910156 46.335938 63.476562 C 46.421875 63.042969 46.464844 62.605469 46.464844 62.164062 L 46.464844 48.707031 C 46.464844 48.410156 46.523438 48.125 46.636719 47.851562 C 46.75 47.574219 46.914062 47.332031 47.121094 47.121094 C 47.332031 46.914062 47.574219 46.75 47.851562 46.636719 C 48.125 46.523438 48.410156 46.464844 48.707031 46.464844 L 62.164062 46.464844 C 62.605469 46.464844 63.042969 46.421875 63.476562 46.335938 C 63.910156 46.25 64.332031 46.121094 64.738281 45.953125 C 65.148438 45.785156 65.535156 45.578125 65.902344 45.332031 C 66.269531 45.085938 66.609375 44.808594 66.921875 44.496094 C 67.234375 44.183594 67.511719 43.84375 67.757812 43.476562 C 68.003906 43.109375 68.210938 42.722656 68.378906 42.3125 C 68.550781 41.90625 68.675781 41.484375 68.761719 41.050781 C 68.851562 40.617188 68.894531 40.179688 68.894531 39.738281 L 68.894531 35.253906 C 68.894531 34.050781 68.59375 32.929688 67.996094 31.886719 C 67.863281 31.632812 67.78125 31.359375 67.75 31.074219 C 67.722656 30.785156 67.75 30.503906 67.828125 30.222656 C 67.910156 29.945312 68.039062 29.695312 68.21875 29.464844 C 68.394531 29.238281 68.609375 29.050781 68.859375 28.90625 C 69.109375 28.761719 69.378906 28.667969 69.664062 28.628906 C 69.953125 28.589844 70.234375 28.601562 70.515625 28.671875 C 70.796875 28.738281 71.054688 28.859375 71.289062 29.027344 C 71.523438 29.195312 71.71875 29.402344 71.875 29.644531 C 72.878906 31.378906 73.378906 33.25 73.378906 35.253906 L 73.378906 39.738281 C 73.378906 40.472656 73.304688 41.203125 73.160156 41.925781 C 73.015625 42.644531 72.804688 43.347656 72.519531 44.027344 C 72.238281 44.707031 71.894531 45.351562 71.484375 45.964844 C 71.074219 46.578125 70.609375 47.144531 70.089844 47.664062 C 69.570312 48.183594 69.003906 48.648438 68.390625 49.058594 C 67.78125 49.464844 67.132812 49.8125 66.453125 50.09375 C 65.773438 50.375 65.074219 50.589844 64.351562 50.734375 C 63.628906 50.878906 62.902344 50.949219 62.164062 50.953125 L 50.953125 50.953125 L 50.953125 62.164062 C 50.949219 62.902344 50.878906 63.628906 50.734375 64.351562 C 50.589844 65.074219 50.375 65.773438 50.09375 66.453125 C 49.8125 67.132812 49.464844 67.78125 49.058594 68.390625 C 48.648438 69.003906 48.183594 69.570312 47.664062 70.089844 C 47.144531 70.609375 46.578125 71.074219 45.964844 71.484375 C 45.351562 71.894531 44.707031 72.238281 44.027344 72.519531 C 43.347656 72.804688 42.644531 73.015625 41.925781 73.160156 C 41.203125 73.304688 40.472656 73.378906 39.738281 73.378906 Z M 39.738281 73.378906 " fill-opacity="1" fill-rule="nonzero"/></g><path fill="#8f2323" d="M 50.953125 37.496094 C 50.5 37.496094 50.082031 37.371094 49.707031 37.117188 C 48.226562 36.132812 35.253906 27.257812 35.253906 19.554688 C 35.253906 18.644531 35.390625 17.753906 35.660156 16.882812 C 35.933594 16.015625 36.328125 15.207031 36.847656 14.457031 C 37.363281 13.707031 37.980469 13.050781 38.699219 12.492188 C 39.417969 11.929688 40.203125 11.488281 41.054688 11.167969 C 41.90625 10.847656 42.789062 10.660156 43.695312 10.605469 C 44.605469 10.550781 45.503906 10.632812 46.386719 10.855469 C 47.269531 11.074219 48.101562 11.417969 48.878906 11.894531 C 49.660156 12.367188 50.347656 12.945312 50.953125 13.625 C 51.554688 12.945312 52.246094 12.367188 53.023438 11.894531 C 53.800781 11.417969 54.632812 11.074219 55.515625 10.855469 C 56.398438 10.632812 57.296875 10.550781 58.207031 10.605469 C 59.117188 10.660156 59.996094 10.847656 60.847656 11.167969 C 61.699219 11.488281 62.484375 11.929688 63.203125 12.492188 C 63.921875 13.050781 64.539062 13.707031 65.054688 14.457031 C 65.574219 15.207031 65.96875 16.015625 66.242188 16.882812 C 66.511719 17.753906 66.648438 18.644531 66.648438 19.554688 C 66.648438 27.257812 53.675781 36.132812 52.195312 37.117188 C 51.820312 37.371094 51.40625 37.496094 50.953125 37.496094 Z M 44.222656 15.070312 C 43.929688 15.070312 43.636719 15.097656 43.347656 15.15625 C 43.058594 15.210938 42.777344 15.296875 42.507812 15.410156 C 42.234375 15.523438 41.976562 15.660156 41.730469 15.824219 C 41.488281 15.988281 41.261719 16.175781 41.050781 16.382812 C 40.84375 16.589844 40.65625 16.816406 40.492188 17.0625 C 40.332031 17.308594 40.191406 17.566406 40.078125 17.835938 C 39.964844 18.109375 39.882812 18.390625 39.824219 18.679688 C 39.765625 18.96875 39.738281 19.257812 39.738281 19.554688 C 39.738281 23.066406 45.929688 28.929688 50.953125 32.527344 C 55.734375 29.097656 62.164062 23.242188 62.164062 19.554688 C 62.164062 19.257812 62.136719 18.96875 62.078125 18.679688 C 62.019531 18.390625 61.9375 18.109375 61.824219 17.835938 C 61.710938 17.566406 61.574219 17.308594 61.410156 17.0625 C 61.246094 16.816406 61.058594 16.589844 60.851562 16.382812 C 60.644531 16.175781 60.417969 15.988281 60.171875 15.824219 C 59.925781 15.660156 59.667969 15.523438 59.394531 15.410156 C 59.125 15.296875 58.84375 15.210938 58.554688 15.15625 C 58.265625 15.097656 57.972656 15.070312 57.679688 15.070312 C 57.386719 15.070312 57.09375 15.097656 56.804688 15.15625 C 56.515625 15.210938 56.234375 15.296875 55.964844 15.410156 C 55.691406 15.523438 55.433594 15.660156 55.1875 15.824219 C 54.941406 15.988281 54.714844 16.175781 54.507812 16.382812 C 54.300781 16.589844 54.113281 16.816406 53.949219 17.0625 C 53.785156 17.308594 53.648438 17.566406 53.535156 17.835938 C 53.421875 18.109375 53.335938 18.390625 53.28125 18.679688 C 53.222656 18.96875 53.195312 19.257812 53.195312 19.554688 C 53.195312 19.851562 53.136719 20.136719 53.023438 20.414062 C 52.910156 20.6875 52.746094 20.929688 52.539062 21.140625 C 52.328125 21.351562 52.085938 21.511719 51.808594 21.625 C 51.535156 21.738281 51.25 21.796875 50.953125 21.796875 C 50.652344 21.796875 50.367188 21.738281 50.09375 21.625 C 49.820312 21.511719 49.574219 21.351562 49.367188 21.140625 C 49.15625 20.929688 48.992188 20.6875 48.878906 20.414062 C 48.765625 20.136719 48.707031 19.851562 48.707031 19.554688 C 48.707031 19.257812 48.679688 18.96875 48.621094 18.679688 C 48.566406 18.390625 48.480469 18.109375 48.367188 17.835938 C 48.253906 17.566406 48.117188 17.308594 47.953125 17.0625 C 47.789062 16.816406 47.601562 16.589844 47.394531 16.382812 C 47.1875 16.175781 46.960938 15.988281 46.714844 15.824219 C 46.46875 15.660156 46.210938 15.523438 45.941406 15.410156 C 45.667969 15.296875 45.386719 15.210938 45.097656 15.15625 C 44.808594 15.097656 44.519531 15.070312 44.222656 15.070312 Z M 44.222656 15.070312 " fill-opacity="1" fill-rule="nonzero"/></svg>