<svg xmlns="http://www.w3.org/2000/svg" xmlns:xlink="http://www.w3.org/1999/xlink" width="217" zoomAndPan="magnify" viewBox="0 0 162.75 34.499999" height="46" preserveAspectRatio="xMidYMid meet" version="1.0"><defs><g/><clipPath id="c97ed0b4df"><path d="M 10.871094 3.402344 L 38.222656 3.402344 L 38.222656 30.753906 L 10.871094 30.753906 Z M 10.871094 3.402344 " clip-rule="nonzero"/></clipPath></defs><g fill="#ffffff" fill-opacity="1"><g transform="translate(34.835155, 27.36664)"><g><path d="M 0.890625 -1.09375 C 1.515625 -1.09375 1.960938 -1.1875 2.234375 -1.375 C 2.515625 -1.570312 2.65625 -1.898438 2.65625 -2.359375 L 2.65625 -19.71875 C 2.65625 -20.175781 2.515625 -20.5 2.234375 -20.6875 C 1.960938 -20.882812 1.515625 -20.984375 0.890625 -20.984375 L 0.890625 -22.078125 L 6.6875 -22.078125 L 11.015625 -5.859375 L 15.125 -22.078125 L 20.78125 -22.078125 L 20.78125 -20.984375 C 20.113281 -20.984375 19.648438 -20.890625 19.390625 -20.703125 C 19.140625 -20.515625 19.015625 -20.1875 19.015625 -19.71875 L 19.015625 -2.359375 C 19.015625 -1.898438 19.148438 -1.570312 19.421875 -1.375 C 19.703125 -1.1875 20.15625 -1.09375 20.78125 -1.09375 L 20.78125 0 L 14.015625 0 L 14.015625 -1.09375 C 14.640625 -1.09375 15.085938 -1.1875 15.359375 -1.375 C 15.640625 -1.570312 15.78125 -1.898438 15.78125 -2.359375 L 15.78125 -19.25 L 10.828125 0 L 9.484375 0 L 4.03125 -18.875 L 4.03125 -2.359375 C 4.03125 -1.898438 4.164062 -1.570312 4.4375 -1.375 C 4.71875 -1.1875 5.171875 -1.09375 5.796875 -1.09375 L 5.796875 0 L 0.890625 0 Z M 0.890625 -1.09375 "/></g></g></g><g fill="#ffffff" fill-opacity="1"><g transform="translate(59.471252, 27.36664)"><g><path d="M 0.703125 -1.09375 C 1.335938 -1.09375 1.789062 -1.1875 2.0625 -1.375 C 2.332031 -1.570312 2.46875 -1.898438 2.46875 -2.359375 L 2.46875 -13.546875 C 2.46875 -13.992188 2.332031 -14.316406 2.0625 -14.515625 C 1.789062 -14.710938 1.335938 -14.8125 0.703125 -14.8125 L 0.703125 -15.890625 L 9.421875 -15.890625 C 9.929688 -15.890625 10.289062 -15.929688 10.5 -16.015625 C 10.71875 -16.109375 10.835938 -16.253906 10.859375 -16.453125 L 11.828125 -16.453125 L 13.046875 -11.6875 L 12.0625 -11.421875 C 11.71875 -12.359375 11.378906 -13.066406 11.046875 -13.546875 C 10.722656 -14.035156 10.3125 -14.359375 9.8125 -14.515625 C 9.3125 -14.671875 8.628906 -14.75 7.765625 -14.75 L 5.6875 -14.75 L 5.6875 -8.421875 L 7.796875 -8.421875 C 8.566406 -8.421875 8.953125 -8.929688 8.953125 -9.953125 L 9.890625 -9.953125 L 9.890625 -5.46875 L 8.953125 -5.46875 C 8.953125 -6.664062 8.566406 -7.265625 7.796875 -7.265625 L 5.6875 -7.265625 L 5.6875 -1.140625 L 8.75 -1.140625 C 9.625 -1.140625 10.300781 -1.238281 10.78125 -1.4375 C 11.269531 -1.632812 11.625 -2.015625 11.84375 -2.578125 C 12.070312 -3.140625 12.242188 -3.957031 12.359375 -5.03125 L 13.328125 -5.03125 L 13.328125 0.625 L 12.328125 0.625 C 12.253906 0.382812 12.066406 0.21875 11.765625 0.125 C 11.472656 0.0390625 10.984375 0 10.296875 0 L 0.703125 0 Z M 0.703125 -1.09375 "/></g></g></g><g fill="#ffffff" fill-opacity="1"><g transform="translate(76.248773, 27.36664)"><g><path d="M 0.703125 -1.09375 C 1.335938 -1.09375 1.789062 -1.1875 2.0625 -1.375 C 2.332031 -1.570312 2.46875 -1.898438 2.46875 -2.359375 L 2.46875 -13.546875 C 2.46875 -13.992188 2.332031 -14.316406 2.0625 -14.515625 C 1.789062 -14.710938 1.335938 -14.8125 0.703125 -14.8125 L 0.703125 -15.890625 L 7.71875 -15.890625 C 9.582031 -15.890625 10.953125 -15.378906 11.828125 -14.359375 C 12.710938 -13.335938 13.15625 -11.75 13.15625 -9.59375 L 13.15625 -6.296875 C 13.15625 -2.097656 11.34375 0 7.71875 0 L 0.703125 0 Z M 7.71875 -14.75 L 5.765625 -14.75 L 5.765625 -1.140625 L 7.71875 -1.140625 C 8.382812 -1.140625 8.914062 -1.398438 9.3125 -1.921875 C 9.71875 -2.441406 9.921875 -3.132812 9.921875 -4 L 9.921875 -11.890625 C 9.921875 -12.753906 9.71875 -13.445312 9.3125 -13.96875 C 8.914062 -14.488281 8.382812 -14.75 7.71875 -14.75 Z M 7.71875 -14.75 "/></g></g></g><g fill="#ffffff" fill-opacity="1"><g transform="translate(93.32063, 27.36664)"><g><path d="M 0.703125 -1.09375 C 1.335938 -1.09375 1.789062 -1.1875 2.0625 -1.375 C 2.332031 -1.570312 2.46875 -1.898438 2.46875 -2.359375 L 2.46875 -13.546875 C 2.46875 -13.992188 2.332031 -14.316406 2.0625 -14.515625 C 1.789062 -14.710938 1.335938 -14.8125 0.703125 -14.8125 L 0.703125 -15.890625 L 7.484375 -15.890625 L 7.484375 -14.8125 C 6.847656 -14.8125 6.390625 -14.710938 6.109375 -14.515625 C 5.835938 -14.316406 5.703125 -13.992188 5.703125 -13.546875 L 5.703125 -2.359375 C 5.703125 -1.898438 5.835938 -1.570312 6.109375 -1.375 C 6.390625 -1.1875 6.847656 -1.09375 7.484375 -1.09375 L 7.484375 0 L 0.703125 0 Z M 0.703125 -1.09375 "/></g></g></g><g fill="#ffffff" fill-opacity="1"><g transform="translate(104.476471, 27.36664)"><g><path d="M 7.09375 -22.375 C 7.84375 -22.375 8.375 -22.429688 8.6875 -22.546875 C 9 -22.660156 9.234375 -22.878906 9.390625 -23.203125 L 10.390625 -23.203125 L 11.6875 -17.875 L 10.6875 -17.609375 C 10.3125 -18.585938 9.96875 -19.332031 9.65625 -19.84375 C 9.34375 -20.351562 9.015625 -20.703125 8.671875 -20.890625 C 8.328125 -21.085938 7.890625 -21.1875 7.359375 -21.1875 C 6.578125 -21.1875 5.914062 -20.890625 5.375 -20.296875 C 4.832031 -19.703125 4.5625 -18.960938 4.5625 -18.078125 L 4.5625 -4 C 4.5625 -3.15625 4.8125 -2.457031 5.3125 -1.90625 C 5.8125 -1.363281 6.445312 -1.09375 7.21875 -1.09375 C 8.132812 -1.09375 8.875 -1.5 9.4375 -2.3125 C 10.007812 -3.125 10.296875 -4.207031 10.296875 -5.5625 L 10.296875 -6.03125 L 11.5625 -6.03125 L 11.5625 -6 C 11.5625 -3.863281 11.164062 -2.28125 10.375 -1.25 C 9.582031 -0.21875 8.363281 0.296875 6.71875 0.296875 C 5.007812 0.296875 3.671875 -0.257812 2.703125 -1.375 C 1.742188 -2.5 1.265625 -4.039062 1.265625 -6 L 1.265625 -16.078125 C 1.265625 -18.128906 1.757812 -19.691406 2.75 -20.765625 C 3.738281 -21.835938 5.1875 -22.375 7.09375 -22.375 Z M 7.09375 -22.375 "/></g></g></g><g fill="#ffffff" fill-opacity="1"><g transform="translate(119.988384, 27.36664)"><g><path d="M 0.703125 -1.09375 C 1.335938 -1.09375 1.789062 -1.1875 2.0625 -1.375 C 2.332031 -1.570312 2.46875 -1.898438 2.46875 -2.359375 L 2.46875 -13.546875 C 2.46875 -13.992188 2.332031 -14.316406 2.0625 -14.515625 C 1.789062 -14.710938 1.335938 -14.8125 0.703125 -14.8125 L 0.703125 -15.890625 L 9.421875 -15.890625 C 9.929688 -15.890625 10.289062 -15.929688 10.5 -16.015625 C 10.71875 -16.109375 10.835938 -16.253906 10.859375 -16.453125 L 11.828125 -16.453125 L 13.046875 -11.6875 L 12.0625 -11.421875 C 11.71875 -12.359375 11.378906 -13.066406 11.046875 -13.546875 C 10.722656 -14.035156 10.3125 -14.359375 9.8125 -14.515625 C 9.3125 -14.671875 8.628906 -14.75 7.765625 -14.75 L 5.6875 -14.75 L 5.6875 -8.421875 L 7.796875 -8.421875 C 8.566406 -8.421875 8.953125 -8.929688 8.953125 -9.953125 L 9.890625 -9.953125 L 9.890625 -5.46875 L 8.953125 -5.46875 C 8.953125 -6.664062 8.566406 -7.265625 7.796875 -7.265625 L 5.6875 -7.265625 L 5.6875 -1.140625 L 8.75 -1.140625 C 9.625 -1.140625 10.300781 -1.238281 10.78125 -1.4375 C 11.269531 -1.632812 11.625 -2.015625 11.84375 -2.578125 C 12.070312 -3.140625 12.242188 -3.957031 12.359375 -5.03125 L 13.328125 -5.03125 L 13.328125 0.625 L 12.328125 0.625 C 12.253906 0.382812 12.066406 0.21875 11.765625 0.125 C 11.472656 0.0390625 10.984375 0 10.296875 0 L 0.703125 0 Z M 0.703125 -1.09375 "/></g></g></g><g fill="#ffffff" fill-opacity="1"><g transform="translate(136.765903, 27.36664)"><g><path d="M 3.5625 -1.09375 C 4.1875 -1.09375 4.632812 -1.1875 4.90625 -1.375 C 5.1875 -1.570312 5.328125 -1.898438 5.328125 -2.359375 L 5.328125 -5.53125 L 1.65625 -13.625 C 1.414062 -14.132812 1.179688 -14.472656 0.953125 -14.640625 C 0.734375 -14.804688 0.375 -14.890625 -0.125 -14.890625 L -0.125 -15.890625 L 6.65625 -15.890625 L 6.65625 -14.890625 C 6.039062 -14.890625 5.554688 -14.765625 5.203125 -14.515625 C 4.859375 -14.273438 4.753906 -13.988281 4.890625 -13.65625 L 7.6875 -7.359375 L 10.25 -13.59375 C 10.40625 -14.007812 10.328125 -14.328125 10.015625 -14.546875 C 9.710938 -14.773438 9.203125 -14.890625 8.484375 -14.890625 L 8.484375 -15.890625 L 13.484375 -15.890625 L 13.484375 -14.890625 C 12.992188 -14.890625 12.617188 -14.800781 12.359375 -14.625 C 12.109375 -14.445312 11.875 -14.101562 11.65625 -13.59375 L 8.5625 -6 L 8.5625 -2.359375 C 8.5625 -1.898438 8.695312 -1.570312 8.96875 -1.375 C 9.25 -1.1875 9.703125 -1.09375 10.328125 -1.09375 L 10.328125 0 L 3.5625 0 Z M 3.5625 -1.09375 "/></g></g></g><g clip-path="url(#c97ed0b4df)"><path fill="#fffefe" d="M 25.320312 30.605469 L 23.621094 30.605469 C 23.34375 30.605469 23.066406 30.578125 22.792969 30.523438 C 22.519531 30.46875 22.253906 30.386719 21.996094 30.277344 C 21.738281 30.171875 21.492188 30.042969 21.261719 29.886719 C 21.027344 29.730469 20.8125 29.554688 20.617188 29.359375 C 20.417969 29.160156 20.242188 28.945312 20.089844 28.714844 C 19.933594 28.480469 19.800781 28.238281 19.695312 27.980469 C 19.589844 27.722656 19.507812 27.457031 19.453125 27.183594 C 19.398438 26.910156 19.371094 26.632812 19.371094 26.355469 L 19.371094 22.101562 L 15.121094 22.101562 C 14.839844 22.101562 14.566406 22.074219 14.292969 22.019531 C 14.015625 21.964844 13.75 21.886719 13.496094 21.777344 C 13.238281 21.671875 12.992188 21.539062 12.757812 21.386719 C 12.527344 21.230469 12.3125 21.054688 12.117188 20.855469 C 11.917969 20.660156 11.742188 20.445312 11.585938 20.210938 C 11.433594 19.980469 11.300781 19.734375 11.195312 19.476562 C 11.085938 19.21875 11.007812 18.953125 10.953125 18.679688 C 10.898438 18.40625 10.871094 18.132812 10.871094 17.851562 L 10.871094 16.152344 C 10.871094 15.875 10.898438 15.597656 10.953125 15.324219 C 11.007812 15.050781 11.085938 14.785156 11.195312 14.527344 C 11.300781 14.269531 11.433594 14.023438 11.585938 13.792969 C 11.742188 13.558594 11.917969 13.34375 12.117188 13.148438 C 12.3125 12.949219 12.527344 12.773438 12.757812 12.621094 C 12.992188 12.464844 13.238281 12.332031 13.496094 12.226562 C 13.75 12.121094 14.015625 12.039062 14.292969 11.984375 C 14.566406 11.929688 14.839844 11.902344 15.121094 11.902344 L 19.371094 11.902344 L 19.371094 7.652344 C 19.371094 7.371094 19.398438 7.097656 19.453125 6.824219 C 19.507812 6.546875 19.589844 6.28125 19.695312 6.027344 C 19.800781 5.769531 19.933594 5.523438 20.089844 5.289062 C 20.242188 5.058594 20.417969 4.84375 20.617188 4.648438 C 20.8125 4.449219 21.027344 4.273438 21.261719 4.117188 C 21.492188 3.964844 21.738281 3.832031 21.996094 3.726562 C 22.253906 3.617188 22.519531 3.539062 22.792969 3.484375 C 23.066406 3.429688 23.34375 3.402344 23.621094 3.402344 L 25.320312 3.402344 C 26.082031 3.398438 26.789062 3.589844 27.445312 3.96875 C 27.640625 4.09375 27.761719 4.265625 27.816406 4.484375 C 27.871094 4.707031 27.839844 4.914062 27.726562 5.113281 C 27.613281 5.308594 27.445312 5.441406 27.226562 5.503906 C 27.007812 5.566406 26.796875 5.546875 26.597656 5.441406 C 26.203125 5.214844 25.777344 5.101562 25.320312 5.101562 L 23.621094 5.101562 C 23.28125 5.101562 22.957031 5.164062 22.644531 5.296875 C 22.332031 5.425781 22.058594 5.609375 21.816406 5.847656 C 21.578125 6.085938 21.394531 6.363281 21.265625 6.675781 C 21.136719 6.988281 21.070312 7.3125 21.070312 7.652344 L 21.070312 12.75 C 21.070312 12.988281 20.988281 13.1875 20.820312 13.351562 C 20.65625 13.519531 20.457031 13.601562 20.21875 13.601562 L 15.121094 13.601562 C 14.78125 13.601562 14.457031 13.667969 14.144531 13.796875 C 13.832031 13.925781 13.554688 14.109375 13.316406 14.347656 C 13.078125 14.589844 12.894531 14.863281 12.765625 15.175781 C 12.632812 15.488281 12.570312 15.8125 12.570312 16.152344 L 12.570312 17.851562 C 12.570312 18.191406 12.632812 18.515625 12.765625 18.828125 C 12.894531 19.140625 13.078125 19.417969 13.316406 19.65625 C 13.554688 19.894531 13.832031 20.078125 14.144531 20.207031 C 14.457031 20.339844 14.78125 20.402344 15.121094 20.402344 L 20.21875 20.402344 C 20.457031 20.402344 20.65625 20.484375 20.820312 20.652344 C 20.988281 20.816406 21.070312 21.019531 21.070312 21.253906 L 21.070312 26.355469 C 21.070312 26.691406 21.136719 27.015625 21.265625 27.328125 C 21.394531 27.640625 21.578125 27.917969 21.816406 28.15625 C 22.058594 28.394531 22.332031 28.582031 22.644531 28.710938 C 22.957031 28.839844 23.28125 28.902344 23.621094 28.902344 L 25.320312 28.902344 C 25.660156 28.902344 25.984375 28.839844 26.296875 28.710938 C 26.609375 28.582031 26.886719 28.394531 27.125 28.15625 C 27.363281 27.917969 27.546875 27.640625 27.675781 27.328125 C 27.808594 27.015625 27.871094 26.691406 27.871094 26.355469 L 27.871094 21.253906 C 27.871094 21.019531 27.953125 20.816406 28.121094 20.652344 C 28.285156 20.484375 28.488281 20.402344 28.722656 20.402344 L 33.824219 20.402344 C 34.160156 20.402344 34.484375 20.339844 34.796875 20.207031 C 35.109375 20.078125 35.386719 19.894531 35.625 19.65625 C 35.863281 19.417969 36.050781 19.140625 36.179688 18.828125 C 36.308594 18.515625 36.371094 18.191406 36.371094 17.851562 L 36.371094 16.152344 C 36.371094 15.695312 36.257812 15.273438 36.03125 14.878906 C 35.925781 14.675781 35.90625 14.464844 35.96875 14.246094 C 36.03125 14.027344 36.164062 13.859375 36.359375 13.746094 C 36.558594 13.632812 36.765625 13.601562 36.988281 13.65625 C 37.210938 13.710938 37.382812 13.835938 37.503906 14.027344 C 37.882812 14.683594 38.074219 15.394531 38.074219 16.152344 L 38.074219 17.851562 C 38.074219 18.132812 38.046875 18.40625 37.992188 18.679688 C 37.9375 18.953125 37.855469 19.21875 37.746094 19.476562 C 37.640625 19.734375 37.511719 19.980469 37.355469 20.210938 C 37.199219 20.445312 37.023438 20.660156 36.828125 20.855469 C 36.628906 21.054688 36.414062 21.230469 36.183594 21.386719 C 35.949219 21.539062 35.707031 21.671875 35.449219 21.777344 C 35.191406 21.886719 34.925781 21.964844 34.652344 22.019531 C 34.378906 22.074219 34.101562 22.101562 33.824219 22.101562 L 29.570312 22.101562 L 29.570312 26.355469 C 29.570312 26.632812 29.542969 26.910156 29.488281 27.183594 C 29.433594 27.457031 29.355469 27.722656 29.246094 27.980469 C 29.140625 28.238281 29.007812 28.480469 28.855469 28.714844 C 28.699219 28.945312 28.523438 29.160156 28.324219 29.359375 C 28.128906 29.554688 27.914062 29.730469 27.679688 29.886719 C 27.449219 30.042969 27.203125 30.171875 26.945312 30.277344 C 26.6875 30.386719 26.421875 30.46875 26.148438 30.523438 C 25.875 30.578125 25.601562 30.605469 25.320312 30.605469 Z M 25.320312 30.605469 " fill-opacity="1" fill-rule="nonzero"/></g><path fill="#fffefe" d="M 29.570312 17.003906 C 29.398438 17.003906 29.242188 16.953125 29.101562 16.859375 C 28.539062 16.484375 23.621094 13.121094 23.621094 10.203125 C 23.621094 9.855469 23.671875 9.519531 23.777344 9.1875 C 23.878906 8.859375 24.027344 8.554688 24.226562 8.269531 C 24.421875 7.984375 24.65625 7.738281 24.929688 7.523438 C 25.199219 7.3125 25.496094 7.144531 25.820312 7.023438 C 26.144531 6.902344 26.476562 6.828125 26.820312 6.808594 C 27.167969 6.789062 27.507812 6.820312 27.839844 6.902344 C 28.175781 6.988281 28.492188 7.117188 28.785156 7.296875 C 29.082031 7.476562 29.34375 7.695312 29.570312 7.953125 C 29.800781 7.695312 30.0625 7.476562 30.355469 7.296875 C 30.652344 7.117188 30.96875 6.988281 31.300781 6.902344 C 31.636719 6.820312 31.976562 6.789062 32.320312 6.808594 C 32.667969 6.828125 33 6.902344 33.324219 7.023438 C 33.644531 7.144531 33.945312 7.3125 34.214844 7.523438 C 34.488281 7.738281 34.722656 7.984375 34.917969 8.269531 C 35.113281 8.554688 35.265625 8.859375 35.367188 9.1875 C 35.46875 9.519531 35.523438 9.855469 35.523438 10.203125 C 35.523438 13.121094 30.605469 16.484375 30.042969 16.859375 C 29.902344 16.953125 29.742188 17.003906 29.570312 17.003906 Z M 27.019531 8.5 C 26.796875 8.5 26.578125 8.542969 26.371094 8.628906 C 26.164062 8.71875 25.980469 8.839844 25.820312 9 C 25.660156 9.160156 25.535156 9.34375 25.449219 9.550781 C 25.363281 9.757812 25.320312 9.976562 25.320312 10.203125 C 25.320312 11.535156 27.667969 13.753906 29.570312 15.117188 C 31.382812 13.820312 33.824219 11.597656 33.824219 10.203125 C 33.824219 9.976562 33.777344 9.757812 33.691406 9.550781 C 33.605469 9.34375 33.484375 9.160156 33.324219 9 C 33.164062 8.839844 32.980469 8.71875 32.773438 8.628906 C 32.566406 8.542969 32.347656 8.5 32.121094 8.5 C 31.898438 8.5 31.679688 8.542969 31.472656 8.628906 C 31.261719 8.71875 31.078125 8.839844 30.917969 9 C 30.761719 9.160156 30.636719 9.34375 30.550781 9.550781 C 30.464844 9.757812 30.421875 9.976562 30.421875 10.203125 C 30.421875 10.4375 30.339844 10.636719 30.171875 10.800781 C 30.007812 10.96875 29.804688 11.050781 29.570312 11.050781 C 29.335938 11.050781 29.136719 10.96875 28.96875 10.800781 C 28.804688 10.636719 28.722656 10.4375 28.722656 10.203125 C 28.722656 9.976562 28.679688 9.757812 28.59375 9.550781 C 28.507812 9.34375 28.382812 9.160156 28.222656 9 C 28.0625 8.839844 27.878906 8.71875 27.671875 8.628906 C 27.464844 8.542969 27.246094 8.5 27.019531 8.5 Z M 27.019531 8.5 " fill-opacity="1" fill-rule="nonzero"/></svg>